<svg width="33" height="32" viewBox="0 0 33 32" fill="none" xmlns="http://www.w3.org/2000/svg">
<rect width="32" height="32" transform="translate(0.640015)" fill="white" fill-opacity="0.01" style="mix-blend-mode:multiply"/>
<path d="M16.64 25.3596C6.22903 25.3596 2.34503 16.2286 2.30703 16.1366C2.27103 16.0486 2.27103 15.9496 2.30703 15.8626C2.34503 15.7706 6.22903 6.63965 16.64 6.63965C27.05 6.63965 30.935 15.7696 30.973 15.8626C31.009 15.9506 31.009 16.0496 30.973 16.1366C30.935 16.2286 27.05 25.3596 16.64 25.3596ZM3.03503 15.9996C3.55603 17.1166 7.41103 24.6396 16.64 24.6396C25.869 24.6396 29.724 17.1176 30.245 15.9996C29.724 14.8816 25.869 7.35965 16.64 7.35965C7.41103 7.35965 3.55603 14.8816 3.03503 15.9996ZM16.64 23.3596C12.582 23.3596 9.28003 20.0576 9.28003 15.9996C9.28003 11.9416 12.582 8.63965 16.64 8.63965C20.699 8.63965 24 11.9416 24 15.9996C24 20.0586 20.699 23.3596 16.64 23.3596ZM16.64 9.35965C12.979 9.35965 10 12.3386 10 15.9996C10 19.6606 12.979 22.6396 16.64 22.6396C20.301 22.6396 23.28 19.6606 23.28 15.9996C23.28 12.3386 20.301 9.35965 16.64 9.35965ZM16.64 19.8596C14.512 19.8596 12.78 18.1276 12.78 15.9996C12.78 13.8716 14.511 12.1396 16.64 12.1396C18.768 12.1396 20.5 13.8706 20.5 15.9996C20.5 18.1276 18.768 19.8596 16.64 19.8596ZM16.64 12.8596C14.909 12.8596 13.5 14.2686 13.5 15.9996C13.5 17.7306 14.909 19.1396 16.64 19.1396C18.371 19.1396 19.78 17.7316 19.78 15.9996C19.78 14.2676 18.371 12.8596 16.64 12.8596Z" fill="white"/>
</svg>
