<svg width="32" height="33" viewBox="0 0 32 33" fill="none" xmlns="http://www.w3.org/2000/svg">
<rect width="32" height="32" transform="translate(0 0.5)" fill="white" fill-opacity="0.01"/>
<path d="M31.36 16.4996C31.36 24.9696 24.469 31.8596 16 31.8596C11.897 31.8596 8.04001 30.2616 5.13901 27.3606L5.64801 26.8506C8.32801 29.5316 11.864 31.0436 15.64 31.1346V27.4996H16.36V31.1356C20.125 31.0436 23.542 29.5247 26.09 27.0986L23.524 24.5336L24.034 24.0236L26.599 26.5896C29.025 24.0416 30.544 20.6246 30.636 16.8596H27V16.1396H30.636C30.544 12.3736 29.025 8.95665 26.599 6.41065L24.034 8.97565L23.524 8.46665L26.09 5.90065C23.542 3.47465 20.125 1.95465 16.36 1.86365V5.49965H15.64V1.86365C11.874 1.95465 8.45701 3.47465 5.91101 5.90065L8.47601 8.46665L7.96701 8.97565L5.40101 6.41065C2.89801 9.03865 1.36001 12.5926 1.36001 16.4996C1.36001 18.7846 1.89701 21.0476 2.91601 23.0736L9.74601 16.2446C9.88701 16.1036 10.114 16.1036 10.255 16.2446L13 18.9906L21.131 10.8596H18V10.1396H22.36V14.4996H21.64V11.3696L13.255 19.7546C13.114 19.8956 12.887 19.8956 12.746 19.7546L10 17.0086L3.07901 23.9286C2.99901 24.0076 2.88901 24.0456 2.77501 24.0306C2.66301 24.0146 2.56601 23.9476 2.51001 23.8496C1.28101 21.5886 0.640015 19.0576 0.640015 16.4996C0.640015 8.02965 7.53001 1.13965 16 1.13965C24.47 1.13965 31.36 8.02965 31.36 16.4996Z" fill="white"/>
</svg>
