<svg width="32" height="32" viewBox="0 0 32 32" fill="none" xmlns="http://www.w3.org/2000/svg">
<rect width="32" height="32" fill="white" fill-opacity="0.01"/>
<path d="M16 6.35965C17.577 6.35965 18.86 5.07665 18.86 3.49965C18.86 1.92265 17.577 0.639648 16 0.639648C14.423 0.639648 13.14 1.92265 13.14 3.49965C13.14 5.07665 14.423 6.35965 16 6.35965ZM16 1.35965C17.18 1.35965 18.14 2.31965 18.14 3.49965C18.14 4.67965 17.18 5.63965 16 5.63965C14.82 5.63965 13.86 4.67965 13.86 3.49965C13.86 2.31965 14.82 1.35965 16 1.35965ZM11.64 16.9996V11.9996C11.64 9.59565 13.596 7.63965 16 7.63965C18.404 7.63965 20.36 9.59565 20.36 11.9996V16.9996C20.36 18.4686 19.6 19.6876 18.36 20.2426V28.9996H17.64V19.9996C17.64 19.8486 17.736 19.7126 17.878 19.6606C18.965 19.2676 19.64 18.2486 19.64 16.9996V11.9996C19.64 9.99265 18.007 8.35965 16 8.35965C13.993 8.35965 12.36 9.99265 12.36 11.9996V16.9996C12.36 18.2486 13.035 19.2686 14.123 19.6606C14.266 19.7126 14.36 19.8486 14.36 19.9996V28.9996H13.64V20.2426C12.4 19.6876 11.64 18.4686 11.64 16.9996ZM24.36 28.9996C24.36 30.5496 20.154 31.3596 16 31.3596C11.846 31.3596 7.63997 30.5496 7.63997 28.9996C7.63997 27.7166 10.339 27.1296 11.948 26.8936L12.052 27.6066C9.50497 27.9786 8.35997 28.6456 8.35997 28.9996C8.35997 29.5566 11.057 30.6396 16 30.6396C20.943 30.6396 23.64 29.5566 23.64 28.9996C23.64 28.7216 22.556 28.0266 19.943 27.6046L20.058 26.8936C21.352 27.1036 24.36 27.7276 24.36 28.9996ZM5.63997 16.9996H6.35997V17.9996H5.63997V16.9996ZM5.63997 18.9996H6.35997V19.9996H5.63997V18.9996ZM5.63997 20.9996H6.35997V21.9996H5.63997V20.9996ZM6.35997 4.86865V15.9996H5.63997V4.86865L3.25397 7.25365L2.74597 6.74565L5.99997 3.49065L9.25397 6.74565L8.74597 7.25365L6.35997 4.86865ZM25.64 14.9996H26.361V15.9996H25.64V14.9996ZM25.64 16.9996H26.361V17.9996H25.64V16.9996ZM25.64 18.9996H26.361V19.9996H25.64V18.9996ZM28.745 5.25365L26.36 2.86965V13.9996H25.64V2.86965L23.255 5.25465L22.745 4.74565L26 1.49065L29.255 4.74565L28.745 5.25365Z" fill="white"/>
</svg>
