<svg width="32" height="32" viewBox="0 0 32 32" fill="none" xmlns="http://www.w3.org/2000/svg">
<rect width="32" height="32" fill="white" fill-opacity="0.01"/>
<path d="M16.0006 0.590088L4.64062 6.78609V20.0001C4.64062 26.1581 9.84263 31.3601 16.0006 31.3601C22.1586 31.3601 27.3606 26.1581 27.3606 20.0001V6.78609L16.0006 0.590088ZM25.8406 23.9571L16.0006 18.5921V19.4131L25.5366 24.6111C24.8376 26.0181 23.8426 27.2621 22.6276 28.2471L16.0006 24.6351V25.4561L21.9956 28.7241C20.2746 29.9241 18.2046 30.6401 16.0006 30.6401C10.2326 30.6401 5.36063 25.7681 5.36063 20.0001V7.21409L16.0006 1.41009L26.6406 7.21409V12.3941L16.0006 6.59209V7.41209L26.6406 13.2131V18.3501L16.0006 12.5491V13.3691L26.6406 19.1711V20.0001C26.6406 21.3901 26.3516 22.7261 25.8406 23.9571Z" fill="white"/>
</svg>
